<?xml version="1.0" standalone="no"?><!DOCTYPE svg PUBLIC "-//W3C//DTD SVG 1.1//EN" "http://www.w3.org/Graphics/SVG/1.1/DTD/svg11.dtd"><svg t="1603336818780" class="icon" viewBox="0 0 1024 1024" version="1.1" xmlns="http://www.w3.org/2000/svg" p-id="2873" xmlns:xlink="http://www.w3.org/1999/xlink" width="200" height="200"><defs><style type="text/css"></style></defs><path d="M428.8 676.608V448.5632c0-33.9456 27.4944-61.44 61.44-61.44h304.8448c33.9456 0 61.44 27.4944 61.44 61.44v228.0448c0 33.9456-27.4944 61.44-61.44 61.44H490.24c-33.8944 0-61.44-27.4944-61.44-61.44z" fill="#DAA7FC" p-id="2874"></path><path d="M914.688 211.5584H272.3328c-14.1312 0-25.6-11.4688-25.6-25.6s11.4688-25.6 25.6-25.6h642.3552c14.1312 0 25.6 11.4688 25.6 25.6s-11.4176 25.6-25.6 25.6zM143.0528 211.5584h-24.2176c-14.1312 0-25.6-11.4688-25.6-25.6s11.4688-25.6 25.6-25.6h24.2176c14.1312 0 25.6 11.4688 25.6 25.6s-11.4688 25.6-25.6 25.6zM914.688 534.7328H272.3328c-14.1312 0-25.6-11.4688-25.6-25.6s11.4688-25.6 25.6-25.6h642.3552c14.1312 0 25.6 11.4688 25.6 25.6 0 14.1824-11.4176 25.6-25.6 25.6zM143.0528 534.7328h-24.2176c-14.1312 0-25.6-11.4688-25.6-25.6s11.4688-25.6 25.6-25.6h24.2176c14.1312 0 25.6 11.4688 25.6 25.6 0 14.1824-11.4688 25.6-25.6 25.6zM914.688 857.9584H272.3328c-14.1312 0-25.6-11.4688-25.6-25.6s11.4688-25.6 25.6-25.6h642.3552c14.1312 0 25.6 11.4688 25.6 25.6s-11.4176 25.6-25.6 25.6zM143.0528 857.9584h-24.2176c-14.1312 0-25.6-11.4688-25.6-25.6s11.4688-25.6 25.6-25.6h24.2176c14.1312 0 25.6 11.4688 25.6 25.6s-11.4688 25.6-25.6 25.6z" fill="#474747" p-id="2875"></path></svg>